<?xml version="1.0" standalone="no"?><!DOCTYPE svg PUBLIC "-//W3C//DTD SVG 1.1//EN" "http://www.w3.org/Graphics/SVG/1.1/DTD/svg11.dtd"><svg t="1567586226777" class="icon" viewBox="0 0 1027 1024" version="1.1" xmlns="http://www.w3.org/2000/svg" p-id="26378" xmlns:xlink="http://www.w3.org/1999/xlink" width="200.5859375" height="200"><defs><style type="text/css"></style></defs><path d="M893.285075 635.641175h108.597003v20.922359c13.848609-46.42771 21.32088-95.545437 21.32088-146.456509 0-281.754427-228.352598-510.107025-510.107025-510.107025-241.404164 0-443.553999 167.677758-496.557307 392.941817h286.935202c13.649348 0 24.608679 11.058961 24.608678 24.608679v246.385678c0 4.284102-3.48706 7.771162-7.771161 7.771162h-107.600701c0-36.763573-29.789453-66.652656-66.652656-66.652656-36.763573 0-66.652656 29.789453-66.652656 66.652656H29.191672c15.343063 45.929558 37.062464 89.069469 64.161899 128.124538 83.290913 120.453006 217.194007 203.345398 370.923526 217.891418 16.040475 1.494454 32.37984 2.291496 48.818836 2.291497 16.239735 0 32.28021-0.797042 48.121424-2.291497 156.519167-14.645651 292.414867-100.028799 375.60615-223.769605 13.549718-20.224946 25.704612-41.446196 36.365051-63.564117h-79.903483v-94.748395z" fill="#29ABE2" p-id="26379"></path><path d="M146.157618 605.25394c36.763573 0 66.652656 29.789453 66.652656 66.652657h107.600701c4.284102 0 7.771162-3.48706 7.771162-7.771162V417.650126c0-13.649348-11.058961-24.608679-24.608679-24.608678h-286.935202C7.671531 430.602063 2.988908 469.856392 2.988908 510.107025c0 56.490368 9.165986 110.8885 26.202764 161.699941h50.31329c0-36.763573 29.889083-66.553026 66.652656-66.553026zM1001.882078 635.641175h-108.597003v95.047286h79.903483c11.357852-23.712006 21.021989-48.420315 28.59389-74.025297v-21.021989z" fill="#FFFFFF" p-id="26380"></path><path d="M145.659467 674.098463m-54.099241 0a54.099241 54.099241 0 1 0 108.198482 0 54.099241 54.099241 0 1 0-108.198482 0Z" fill="#FFFFFF" p-id="26381"></path><path d="M411.87157 729.891419H739.256665l-16.837517-29.291302H419.642732L316.824285 641.220471l-14.645651 25.306091 109.593306 63.265226v0.099631h0.09963z" fill="#FFFFFF" p-id="26382"></path><path d="M330.81935 644.390706l47.523643-82.311547 94.045005 54.298502-47.523643 82.311547zM503.132905 601.268729h108.597004v95.047286H503.132905zM584.929364 502.036972h108.597003v95.047286h-108.597003zM572.575209 403.402997h108.597003v95.047285h-108.597003zM472.64604 502.036972h108.597003v95.047286h-108.597003zM615.81475 601.268729h108.597003v95.047286h-108.597003z" fill="#FFFFFF" p-id="26383"></path><path d="M814.326038 575.06287a30.287605 34.073555 8.818 1 0 10.446699-67.34163 30.287605 34.073555 8.818 1 0-10.446699 67.34163Z" fill="#FFFFFF" p-id="26384"></path><path d="M893.285075 579.449698l-37.859506-23.313485c-0.199261-0.09963-0.498151-0.09963-0.597781 0.099631l-14.844912 18.929752c-2.092236 2.590387-5.479665 3.885581-8.767464 3.2878l-1.195564-0.199261c-0.498151-0.09963-1.095933 0-1.594084 0.199261-4.582993 1.892975-9.664137 2.590387-14.745281 1.793345-5.678926-0.896673-10.76007-3.48706-14.844912-7.372641-0.398521-0.398521-0.896673-0.597782-1.394824-0.697412l-10.062658-1.892975c-1.693715-0.298891-3.387429-0.09963-4.981514 0.498151l-0.996303 0.398521c-1.892975 0.797042-3.48706 2.092236-4.483362 3.885581L763.167932 602.364662c-1.494454 2.590387-0.896673 4.782253 0.797042 6.675229 1.793345 1.992606 4.383732 3.188169 7.073749 3.287799l17.136408 0.996303v30.586495c0.199261 4.782253 4.184472 8.667834 8.966725 8.667835h28.095739c8.667834 0 15.841214-6.774859 16.339365-15.442694l1.195564-19.926055 6.475968 3.985211c7.771162 4.782253 17.93345 2.191866 22.616073-5.579296l21.42051-36.165791z m-106.106246 21.918662l-8.767465-0.398522 8.767465-12.453784v12.852306zM802.12337 732.481806h-8.269313c-0.498151 0-0.797042-0.398521-0.797042-0.797042V659.353182c0-0.498151 0.398521-0.797042 0.797042-0.797043h8.269313c0.498151 0 0.797042 0.398521 0.797043 0.797043v72.331582c0 0.498151-0.398521 0.797042-0.797043 0.797042zM834.901732 732.481806h-8.269313c-0.498151 0-0.797042-0.398521-0.797042-0.797042V659.353182c0-0.498151 0.398521-0.797042 0.797042-0.797043h8.269313c0.498151 0 0.797042 0.398521 0.797042 0.797043v72.331582c0 0.498151-0.298891 0.797042-0.797042 0.797042z" fill="#FFFFFF" p-id="26385"></path></svg>